<?xml version="1.0" encoding="utf-8"?>
<!-- Generator: Adobe Illustrator 23.0.0, SVG Export Plug-In . SVG Version: 6.00 Build 0)  -->
<svg version="1.1" xmlns="http://www.w3.org/2000/svg" xmlns:xlink="http://www.w3.org/1999/xlink" x="0px" y="0px"
	 viewBox="0 0 36.88 144.12" style="enable-background:new 0 0 36.88 144.12;" xml:space="preserve">
<style type="text/css">
	.st0{display:none;}
	.st1{display:inline;}
	.st2{fill:#55C3DC;}
	.st3{fill:#FFFFFF;}
	.st4{display:inline;fill:#55C3DC;stroke:#FFFFFF;stroke-width:11;stroke-miterlimit:10;}
</style>
<g id="Capa_2" class="st0">
	<rect class="st1" width="42" height="1080"/>
</g>
<g id="Capa_3">
	<g>
		<path class="st2" d="M34.38,72.24c0.01,18.72-5.89,28.21-11.59,37.38c-5.55,8.93-10.8,17.36-10.8,34.5H0V0h11.99v0.23
			c0,17.27,5.25,25.72,10.81,34.67C28.49,44.06,34.37,53.52,34.38,72.24z"/>
		<path class="st3" d="M24.93,33.58c-5.37-8.64-10.44-16.79-10.44-33.35V0h-5v0.23c0,35.97,22.38,36.01,22.39,72.01
			c0.01,35.96-22.38,36.12-22.39,71.88h5c0-16.42,5.06-24.56,10.42-33.18c5.89-9.47,11.98-19.26,11.97-38.7
			C36.87,52.81,30.8,43.03,24.93,33.58z"/>
	</g>
</g>
<g id="Capa_1" class="st0">
	<path class="st4" d="M46,1124c0,0-61.935-205.301-30-612.5S-14-101-14-101v1225H46"/>
</g>
</svg>
